<svg width="23" height="22" viewBox="0 0 23 22" fill="none" xmlns="http://www.w3.org/2000/svg">
<mask id="path-1-inside-1" fill="white">
<path fill-rule="evenodd" clip-rule="evenodd" d="M0 21.8556H23C22.3605 16.0703 17.4557 11.5706 11.5 11.5706C5.54427 11.5706 0.639522 16.0703 0 21.8556Z"/>
</mask>
<path fill-rule="evenodd" clip-rule="evenodd" d="M0 21.8556H23C22.3605 16.0703 17.4557 11.5706 11.5 11.5706C5.54427 11.5706 0.639522 16.0703 0 21.8556Z" fill="#333333"/>
<path d="M0 21.8556L-0.993945 21.7457L-1.11663 22.8556H0V21.8556ZM23 21.8556V22.8556H24.1166L23.9939 21.7457L23 21.8556ZM0 22.8556H23V20.8556H0V22.8556ZM11.5 12.5706C16.9403 12.5706 21.4219 16.6812 22.0061 21.9654L23.9939 21.7457C23.299 15.4594 17.9711 10.5706 11.5 10.5706V12.5706ZM0.993945 21.9654C1.57808 16.6812 6.05967 12.5706 11.5 12.5706V10.5706C5.02888 10.5706 -0.299035 15.4594 -0.993945 21.7457L0.993945 21.9654Z" fill="#333333" mask="url(#path-1-inside-1)"/>
<circle cx="11.5" cy="6.42812" r="5.92812" fill="#333333" stroke="#333333"/>
</svg>
